<svg xmlns="http://www.w3.org/2000/svg" width="38" height="38" viewBox="0 0 38 38">
  <g id="Group_12264" data-name="Group 12264" transform="translate(-258 -4158)">
    <g id="Path_29543" data-name="Path 29543" transform="translate(258 4158)" fill="#18212c">
      <path d="M 19 37.5 C 16.50230026245117 37.5 14.07956981658936 37.01092910766602 11.79911994934082 36.04637908935547 C 9.596209526062012 35.11463165283203 7.617690086364746 33.7806396484375 5.918519973754883 32.08147811889648 C 4.219359874725342 30.38231086730957 2.885370016098022 28.40378952026367 1.953619956970215 26.20088005065918 C 0.9890699982643127 23.92042922973633 0.5 21.49769973754883 0.5 19 C 0.5 16.50230026245117 0.9890699982643127 14.07956981658936 1.953619956970215 11.79911994934082 C 2.885370016098022 9.596209526062012 4.219359874725342 7.617690086364746 5.918519973754883 5.918519973754883 C 7.617690086364746 4.219359874725342 9.596209526062012 2.885370016098022 11.79911994934082 1.953619956970215 C 14.07956981658936 0.9890699982643127 16.50230026245117 0.5 19 0.5 C 21.49769973754883 0.5 23.92042922973633 0.9890699982643127 26.20088005065918 1.953619956970215 C 28.40378952026367 2.885370016098022 30.38231086730957 4.219359874725342 32.08147811889648 5.918519973754883 C 33.7806396484375 7.617690086364746 35.11463165283203 9.596209526062012 36.04637908935547 11.79911994934082 C 37.01092910766602 14.07956981658936 37.5 16.50230026245117 37.5 19 C 37.5 21.49769973754883 37.01092910766602 23.92042922973633 36.04637908935547 26.20088005065918 C 35.11463165283203 28.40378952026367 33.7806396484375 30.38231086730957 32.08147811889648 32.08147811889648 C 30.38231086730957 33.7806396484375 28.40378952026367 35.11463165283203 26.20088005065918 36.04637908935547 C 23.92042922973633 37.01092910766602 21.49769973754883 37.5 19 37.5 Z" stroke="none"/>
      <path d="M 19 1 C 14.19202995300293 1 9.671829223632812 2.872329711914062 6.272079467773438 6.272079467773438 C 2.872329711914062 9.671829223632812 1 14.19202995300293 1 19 C 1 23.80797004699707 2.872329711914062 28.32817077636719 6.272079467773438 31.72792053222656 C 9.671829223632812 35.12767028808594 14.19202995300293 37 19 37 C 23.80797004699707 37 28.32817077636719 35.12767028808594 31.72792053222656 31.72792053222656 C 35.12767028808594 28.32817077636719 37 23.80797004699707 37 19 C 37 14.19202995300293 35.12767028808594 9.671829223632812 31.72792053222656 6.272079467773438 C 28.32817077636719 2.872329711914062 23.80797004699707 1 19 1 M 19 0 C 29.49341011047363 0 38 8.506589889526367 38 19 C 38 29.49341011047363 29.49341011047363 38 19 38 C 8.506589889526367 38 0 29.49341011047363 0 19 C 0 8.506589889526367 8.506589889526367 0 19 0 Z" stroke="none" fill="#ff014f"/>
    </g>
    <path id="Op_component_2" data-name="Op component 2" d="M2351.6,215.929h-11.718a1.921,1.921,0,0,0-1.953,1.948v11.688a1.921,1.921,0,0,0,1.953,1.948h11.717a1.921,1.921,0,0,0,1.954-1.948V217.877A1.921,1.921,0,0,0,2351.6,215.929Zm-5.847,4.731a3.034,3.034,0,1,1-3.136,3.031A3.085,3.085,0,0,1,2345.748,220.66Zm5.847,8.419c0,.341-.146.488-.488.488h-10.743c-.341,0-.488-.146-.488-.488v-6.818l1.218.264a4.518,4.518,0,0,0-.2,1.336,4.858,4.858,0,0,0,9.709,0,4.494,4.494,0,0,0-.2-1.336l1.194-.264v6.818Zm0-8.766a.488.488,0,0,1-.488.487h-1.954a.488.488,0,0,1-.489-.487v-1.948a.488.488,0,0,1,.489-.487h1.954a.488.488,0,0,1,.488.487Z" transform="translate(-2067.75 3953.777)" fill="#fff"/>
  </g>
</svg>
